<?xml version="1.0" encoding="UTF-8"?>
<!DOCTYPE svg PUBLIC "-//W3C//DTD SVG 1.1//EN" "http://www.w3.org/Graphics/SVG/1.1/DTD/svg11.dtd">
<svg xmlns="http://www.w3.org/2000/svg" xmlns:xlink="http://www.w3.org/1999/xlink" version="1.1" width="1241px" height="281px" viewBox="-0.5 -0.5 1241 281"><defs/><g><path d="M 298 140 Q 298 120 278 120" fill="none" stroke="#000000" stroke-miterlimit="10" pointer-events="stroke"/><path d="M 298 180 Q 298 180 298 140" fill="none" stroke="#000000" stroke-miterlimit="10" pointer-events="stroke"/><path d="M 298 180 Q 298 200 318 200" fill="none" stroke="#000000" stroke-miterlimit="10" pointer-events="stroke"/><path d="M 318 200 Q 318 200 318 140" fill="none" stroke="#000000" stroke-miterlimit="10" pointer-events="stroke"/><path d="M 318 140 Q 318 120 338 120" fill="none" stroke="#000000" stroke-miterlimit="10" pointer-events="stroke"/><path d="M 368 140 Q 368 120 348 120" fill="none" stroke="#000000" stroke-miterlimit="10" pointer-events="stroke"/><path d="M 358 199 Q 368 199 368 189" fill="none" stroke="#000000" stroke-miterlimit="10" pointer-events="stroke"/><path d="M 348 199 Q 348 199 360 199.17" fill="none" stroke="#000000" stroke-miterlimit="10" pointer-events="stroke"/><path d="M 328 250 Q 328 250 328 220" fill="none" stroke="#000000" stroke-miterlimit="10" pointer-events="stroke"/><path d="M 328 250 Q 328 250 348 250" fill="none" stroke="#000000" stroke-miterlimit="10" pointer-events="stroke"/><path d="M 338 120 Q 338 120 350 120" fill="none" stroke="#000000" stroke-miterlimit="10" pointer-events="stroke"/><path d="M 368 190 Q 368 190 368 140" fill="none" stroke="#000000" stroke-miterlimit="10" pointer-events="stroke"/><ellipse cx="328" cy="85" rx="15" ry="15" fill="none" stroke="#000000" pointer-events="all"/><path d="M 8 120 Q 8 120 18 120" fill="none" stroke="#000000" stroke-miterlimit="10" pointer-events="stroke"/><path d="M 48 200 Q 48 200 48 150" fill="none" stroke="#000000" stroke-miterlimit="10" pointer-events="stroke"/><path d="M 18 120 Q 48 120 48 150" fill="none" stroke="#000000" stroke-miterlimit="10" pointer-events="stroke"/><path d="M 118 199 Q 118 199 198 199" fill="none" stroke="#000000" stroke-miterlimit="10" pointer-events="stroke"/><path d="M 168 179 Q 198 179 198 199" fill="none" stroke="#000000" stroke-miterlimit="10" pointer-events="stroke"/><path d="M 151 189 Q 161 179 181 179" fill="none" stroke="#000000" stroke-miterlimit="10" pointer-events="stroke"/><path d="M 132 198 Q 142 198 152 188" fill="none" stroke="#000000" stroke-miterlimit="10" pointer-events="stroke"/><ellipse cx="253" cy="185" rx="15" ry="15" fill="none" stroke="#000000" pointer-events="all"/><path d="M 234 200 Q 234 200 248 200" fill="none" stroke="#000000" stroke-miterlimit="10" pointer-events="stroke"/><path d="M 384 120.33 Q 384 120.33 457 120" fill="none" stroke="#000000" stroke-miterlimit="10" pointer-events="stroke"/><ellipse cx="489" cy="184" rx="15" ry="15" fill="none" stroke="#000000" pointer-events="all"/><ellipse cx="488" cy="135" rx="15" ry="15" fill="none" stroke="#000000" pointer-events="all"/><path d="M 1118 140 Q 1118 120 1098 120" fill="none" stroke="#000000" stroke-miterlimit="10" pointer-events="stroke"/><path d="M 1118 180 Q 1118 180 1118 140" fill="none" stroke="#000000" stroke-miterlimit="10" pointer-events="stroke"/><path d="M 1118 180 Q 1118 200 1138 200" fill="none" stroke="#000000" stroke-miterlimit="10" pointer-events="stroke"/><path d="M 1138 200 Q 1138 200 1138 140" fill="none" stroke="#000000" stroke-miterlimit="10" pointer-events="stroke"/><path d="M 1138 140 Q 1138 120 1158 120" fill="none" stroke="#000000" stroke-miterlimit="10" pointer-events="stroke"/><path d="M 1188 140 Q 1188 120 1168 120" fill="none" stroke="#000000" stroke-miterlimit="10" pointer-events="stroke"/><path d="M 1178 199 Q 1188 199 1188 189" fill="none" stroke="#000000" stroke-miterlimit="10" pointer-events="stroke"/><path d="M 1168 199 Q 1168 199 1180 199.17" fill="none" stroke="#000000" stroke-miterlimit="10" pointer-events="stroke"/><path d="M 1158 120 Q 1158 120 1170 120" fill="none" stroke="#000000" stroke-miterlimit="10" pointer-events="stroke"/><path d="M 1188 190 Q 1188 190 1188 140" fill="none" stroke="#000000" stroke-miterlimit="10" pointer-events="stroke"/><path d="M 1108 101 Q 1108 101 1182 101.33" fill="none" stroke="#000000" stroke-miterlimit="10" pointer-events="stroke"/><path d="M 1108 101 Q 1148 61 1182 101.33" fill="none" stroke="#000000" stroke-miterlimit="10" pointer-events="stroke"/><ellipse cx="1139" cy="229" rx="10" ry="10" fill="none" stroke="#000000" pointer-events="all"/><path d="M 0 280 Q 0 280 0 0" fill="none" stroke="none" pointer-events="stroke"/><path d="M 0 280 M 0 280 C 0.72 279.44 1.68 186.36 0 0 M 0 280 C 2.21 279.8 0.6 187.48 0 0" fill="none" stroke="#000000" stroke-linejoin="round" stroke-linecap="round" stroke-miterlimit="10" pointer-events="stroke"/><path d="M 457 130 Q 457 130 457 120" fill="none" stroke="#000000" stroke-miterlimit="10" pointer-events="stroke"/><path d="M 1057 200 Q 1057 200 1038 160" fill="none" stroke="#000000" stroke-miterlimit="10" pointer-events="stroke"/><path d="M 1037 160 Q 1077 150 1077 120" fill="none" stroke="#000000" stroke-miterlimit="10" pointer-events="stroke"/><path d="M 1077 120 Q 1077 40 978 70" fill="none" stroke="#000000" stroke-miterlimit="10" pointer-events="stroke"/><path d="M 1057.67 200 Q 1057.67 200 1057.67 150" fill="none" stroke="#000000" stroke-miterlimit="10" pointer-events="stroke"/><path d="M 1038 120 Q 1057.67 120 1057.67 150" fill="none" stroke="#000000" stroke-miterlimit="10" pointer-events="stroke"/><path d="M 978 180 Q 978 160 995 139" fill="none" stroke="#000000" stroke-miterlimit="10" pointer-events="stroke"/><path d="M 978 190 Q 978 200 1018 200" fill="none" stroke="#000000" stroke-miterlimit="10" pointer-events="stroke"/><path d="M 1018 200 Q 1018 200 1018 140" fill="none" stroke="#000000" stroke-miterlimit="10" pointer-events="stroke"/><path d="M 1018 140 Q 1018 120 1038 120" fill="none" stroke="#000000" stroke-miterlimit="10" pointer-events="stroke"/><ellipse cx="988" cy="132" rx="10" ry="10" fill="none" stroke="#000000" pointer-events="all"/><path d="M 1010 91 Q 1010 91 1030 91" fill="none" stroke="#000000" stroke-miterlimit="10" pointer-events="stroke"/><path d="M 1020 102 Q 1020 102 1020 81" fill="none" stroke="#000000" stroke-miterlimit="10" pointer-events="stroke"/><path d="M 908 200 Q 908 200 908 81" fill="none" stroke="#000000" stroke-miterlimit="10" pointer-events="stroke"/><path d="M 878 111 Q 878 81 908 81" fill="none" stroke="#000000" stroke-miterlimit="10" pointer-events="stroke"/><path d="M 888 128 Q 878 118 878 110" fill="none" stroke="#000000" stroke-miterlimit="10" pointer-events="stroke"/><path d="M 908 168 Q 908 148 888 128" fill="none" stroke="#000000" stroke-miterlimit="10" pointer-events="stroke"/><path d="M 934 220 Q 934 220 954 220" fill="none" stroke="#000000" stroke-miterlimit="10" pointer-events="stroke"/><path d="M 944 231 Q 944 231 944 221" fill="none" stroke="#000000" stroke-miterlimit="10" pointer-events="stroke"/><path d="M 248 150 Q 248 130 228 120" fill="none" stroke="#000000" stroke-miterlimit="10" pointer-events="stroke"/><path d="M 248 120 Q 228 130 228 150" fill="none" stroke="#000000" stroke-miterlimit="10" pointer-events="stroke"/><path d="M 238 160 Q 228 160 228 150" fill="none" stroke="#000000" stroke-miterlimit="10" pointer-events="stroke"/><path d="M 268 185 Q 268 185 268 140" fill="none" stroke="#000000" stroke-miterlimit="10" pointer-events="stroke"/><path d="M 238 160 Q 248 160 248 150" fill="none" stroke="#000000" stroke-miterlimit="10" pointer-events="stroke"/><path d="M 268 140 Q 268 120 248 120" fill="none" stroke="#000000" stroke-miterlimit="10" pointer-events="stroke"/><path d="M 1238 143 Q 1238 123 1218 123" fill="none" stroke="#000000" stroke-miterlimit="10" pointer-events="stroke"/><path d="M 1228 123 Q 1208 123 1208 143" fill="none" stroke="#000000" stroke-miterlimit="10" pointer-events="stroke"/><path d="M 1208 153 Q 1208 153 1208 143" fill="none" stroke="#000000" stroke-miterlimit="10" pointer-events="stroke"/><path d="M 1238 153 Q 1238 153 1238 143" fill="none" stroke="#000000" stroke-miterlimit="10" pointer-events="stroke"/><path d="M 1238 187 Q 1238 167 1218 167" fill="none" stroke="#000000" stroke-miterlimit="10" pointer-events="stroke"/><path d="M 1228 167 Q 1208 167 1208 187" fill="none" stroke="#000000" stroke-miterlimit="10" pointer-events="stroke"/><path d="M 1208 197 Q 1208 197 1208 187" fill="none" stroke="#000000" stroke-miterlimit="10" pointer-events="stroke"/><path d="M 1238 197 Q 1238 197 1238 187" fill="none" stroke="#000000" stroke-miterlimit="10" pointer-events="stroke"/><path d="M 958 143 Q 958 123 938 123" fill="none" stroke="#000000" stroke-miterlimit="10" pointer-events="stroke"/><path d="M 948 123 Q 928 123 928 143" fill="none" stroke="#000000" stroke-miterlimit="10" pointer-events="stroke"/><path d="M 928 153 Q 928 153 928 143" fill="none" stroke="#000000" stroke-miterlimit="10" pointer-events="stroke"/><path d="M 958 153 Q 958 153 958 143" fill="none" stroke="#000000" stroke-miterlimit="10" pointer-events="stroke"/><path d="M 958 187 Q 958 167 938 167" fill="none" stroke="#000000" stroke-miterlimit="10" pointer-events="stroke"/><path d="M 948 167 Q 928 167 928 187" fill="none" stroke="#000000" stroke-miterlimit="10" pointer-events="stroke"/><path d="M 928 197 Q 928 197 928 187" fill="none" stroke="#000000" stroke-miterlimit="10" pointer-events="stroke"/><path d="M 958 197 Q 958 197 958 187" fill="none" stroke="#000000" stroke-miterlimit="10" pointer-events="stroke"/><path d="M 98 143 Q 98 123 78 123" fill="none" stroke="#000000" stroke-miterlimit="10" pointer-events="stroke"/><path d="M 88 123 Q 68 123 68 143" fill="none" stroke="#000000" stroke-miterlimit="10" pointer-events="stroke"/><path d="M 68 153 Q 68 153 68 143" fill="none" stroke="#000000" stroke-miterlimit="10" pointer-events="stroke"/><path d="M 98 153 Q 98 153 98 143" fill="none" stroke="#000000" stroke-miterlimit="10" pointer-events="stroke"/><path d="M 98 187 Q 98 167 78 167" fill="none" stroke="#000000" stroke-miterlimit="10" pointer-events="stroke"/><path d="M 88 167 Q 68 167 68 187" fill="none" stroke="#000000" stroke-miterlimit="10" pointer-events="stroke"/><path d="M 68 197 Q 68 197 68 187" fill="none" stroke="#000000" stroke-miterlimit="10" pointer-events="stroke"/><path d="M 98 197 Q 98 197 98 187" fill="none" stroke="#000000" stroke-miterlimit="10" pointer-events="stroke"/><path d="M 215 180 Q 215 200 235 200" fill="none" stroke="#000000" stroke-miterlimit="10" pointer-events="stroke"/><path d="M 215 140 Q 215 120 195 120" fill="none" stroke="#000000" stroke-miterlimit="10" pointer-events="stroke"/><path d="M 215 180 Q 215 180 215 140" fill="none" stroke="#000000" stroke-miterlimit="10" pointer-events="stroke"/><path d="M 978 190 Q 978 190 978 180" fill="none" stroke="#000000" stroke-miterlimit="10" pointer-events="stroke"/><path d="M 858 158 Q 858 59 758 59" fill="none" stroke="#000000" stroke-miterlimit="10" pointer-events="stroke"/><path d="M 758 259 Q 858 259 858 158" fill="none" stroke="#000000" stroke-miterlimit="10" pointer-events="stroke"/><path d="M 618 59 Q 618 59 778 59" fill="none" stroke="#000000" stroke-miterlimit="10" pointer-events="stroke"/><path d="M 618 259 Q 618 259 778 259" fill="none" stroke="#000000" stroke-miterlimit="10" pointer-events="stroke"/><path d="M 588 140 Q 588 120 568 120" fill="none" stroke="#000000" stroke-miterlimit="10" pointer-events="stroke"/><path d="M 588 180 Q 588 180 588 140" fill="none" stroke="#000000" stroke-miterlimit="10" pointer-events="stroke"/><path d="M 588 180 Q 588 200 608 200" fill="none" stroke="#000000" stroke-miterlimit="10" pointer-events="stroke"/><path d="M 608 200 Q 608 200 608 140" fill="none" stroke="#000000" stroke-miterlimit="10" pointer-events="stroke"/><path d="M 608 140 Q 608 120 628 120" fill="none" stroke="#000000" stroke-miterlimit="10" pointer-events="stroke"/><path d="M 658 140 Q 658 120 638 120" fill="none" stroke="#000000" stroke-miterlimit="10" pointer-events="stroke"/><path d="M 648 199 Q 658 199 658 189" fill="none" stroke="#000000" stroke-miterlimit="10" pointer-events="stroke"/><path d="M 638 199 Q 638 199 650 199.17" fill="none" stroke="#000000" stroke-miterlimit="10" pointer-events="stroke"/><path d="M 628 120 Q 628 120 640 120" fill="none" stroke="#000000" stroke-miterlimit="10" pointer-events="stroke"/><path d="M 658 190 Q 658 190 658 140" fill="none" stroke="#000000" stroke-miterlimit="10" pointer-events="stroke"/><path d="M 578 101 Q 578 101 652 101.33" fill="none" stroke="#000000" stroke-miterlimit="10" pointer-events="stroke"/><path d="M 578 101 Q 618 61 652 101.33" fill="none" stroke="#000000" stroke-miterlimit="10" pointer-events="stroke"/><ellipse cx="609" cy="229" rx="10" ry="10" fill="none" stroke="#000000" pointer-events="all"/><path d="M 708 143 Q 708 123 688 123" fill="none" stroke="#000000" stroke-miterlimit="10" pointer-events="stroke"/><path d="M 698 123 Q 678 123 678 143" fill="none" stroke="#000000" stroke-miterlimit="10" pointer-events="stroke"/><path d="M 678 153 Q 678 153 678 143" fill="none" stroke="#000000" stroke-miterlimit="10" pointer-events="stroke"/><path d="M 708 153 Q 708 153 708 143" fill="none" stroke="#000000" stroke-miterlimit="10" pointer-events="stroke"/><path d="M 708 187 Q 708 167 688 167" fill="none" stroke="#000000" stroke-miterlimit="10" pointer-events="stroke"/><path d="M 698 167 Q 678 167 678 187" fill="none" stroke="#000000" stroke-miterlimit="10" pointer-events="stroke"/><path d="M 678 197 Q 678 197 678 187" fill="none" stroke="#000000" stroke-miterlimit="10" pointer-events="stroke"/><path d="M 708 197 Q 708 197 708 187" fill="none" stroke="#000000" stroke-miterlimit="10" pointer-events="stroke"/><path d="M 518 159 Q 518 59 618 59" fill="none" stroke="#000000" stroke-miterlimit="10" pointer-events="stroke"/><path d="M 518 159 Q 518 259 618 259" fill="none" stroke="#000000" stroke-miterlimit="10" pointer-events="stroke"/><path d="M 802 137 Q 802 117 782 117" fill="none" stroke="#000000" stroke-miterlimit="10" pointer-events="stroke"/><path d="M 792 117 Q 772 117 772 137" fill="none" stroke="#000000" stroke-miterlimit="10" pointer-events="stroke"/><path d="M 772 197 Q 772 197 772 137" fill="none" stroke="#000000" stroke-miterlimit="10" pointer-events="stroke"/><path d="M 802 197 Q 802 197 802 137" fill="none" stroke="#000000" stroke-miterlimit="10" pointer-events="stroke"/><path d="M 752 197 Q 752 197 752 78" fill="none" stroke="#000000" stroke-miterlimit="10" pointer-events="stroke"/><path d="M 722 108 Q 722 78 752 78" fill="none" stroke="#000000" stroke-miterlimit="10" pointer-events="stroke"/><path d="M 732 125 Q 722 115 722 107" fill="none" stroke="#000000" stroke-miterlimit="10" pointer-events="stroke"/><path d="M 752 165 Q 752 145 732 125" fill="none" stroke="#000000" stroke-miterlimit="10" pointer-events="stroke"/><path d="M 778 217 Q 778 217 798 217" fill="none" stroke="#000000" stroke-miterlimit="10" pointer-events="stroke"/><path d="M 788 228 Q 788 228 788 218" fill="none" stroke="#000000" stroke-miterlimit="10" pointer-events="stroke"/></g></svg>