<?xml version="1.0" encoding="UTF-8"?>
<!DOCTYPE svg PUBLIC "-//W3C//DTD SVG 1.1//EN" "http://www.w3.org/Graphics/SVG/1.1/DTD/svg11.dtd">
<svg xmlns="http://www.w3.org/2000/svg" xmlns:xlink="http://www.w3.org/1999/xlink" version="1.1" width="453px" height="282px" viewBox="-0.5 -0.5 453 282"><defs/><g><path d="M 10 120 Q 50 120 50 170" fill="none" stroke="#000000" stroke-miterlimit="10" pointer-events="stroke"/><path d="M 10 170 Q 10 120 60 120" fill="none" stroke="#000000" stroke-miterlimit="10" pointer-events="stroke"/><path d="M 30 200 Q 50 200 50 170" fill="none" stroke="#000000" stroke-miterlimit="10" pointer-events="stroke"/><path d="M 30 200 Q 10 200 10 170" fill="none" stroke="#000000" stroke-miterlimit="10" pointer-events="stroke"/><path d="M 60 120 Q 90 120 90 150" fill="none" stroke="#000000" stroke-miterlimit="10" pointer-events="stroke"/><path d="M 90 200 Q 90 200 90 150" fill="none" stroke="#000000" stroke-miterlimit="10" pointer-events="stroke"/><path d="M 10 250 Q 10 250 10 220" fill="none" stroke="#000000" stroke-miterlimit="10" pointer-events="stroke"/><path d="M 10 250 Q 10 250 20 260" fill="none" stroke="#000000" stroke-miterlimit="10" pointer-events="stroke"/><path d="M 20 260 Q 20 220 50 220" fill="none" stroke="#000000" stroke-miterlimit="10" pointer-events="stroke"/><path d="M 90 260 Q 90 220 60 220" fill="none" stroke="#000000" stroke-miterlimit="10" pointer-events="stroke"/><path d="M 50 220 Q 50 220 60 220" fill="none" stroke="#000000" stroke-miterlimit="10" pointer-events="stroke"/><path d="M 10 219 Q 10 209 50 209 Q 90 209 90 199" fill="none" stroke="#000000" stroke-miterlimit="10" pointer-events="stroke"/><ellipse cx="125" cy="138" rx="15" ry="15" fill="none" stroke="#000000" pointer-events="all"/><ellipse cx="125" cy="185" rx="15" ry="15" fill="none" stroke="#000000" pointer-events="all"/><path d="M 280 140 Q 280 120 260 120" fill="none" stroke="#000000" stroke-miterlimit="10" pointer-events="stroke"/><path d="M 280 180 Q 280 180 280 140" fill="none" stroke="#000000" stroke-miterlimit="10" pointer-events="stroke"/><path d="M 280 180 Q 280 200 300 200" fill="none" stroke="#000000" stroke-miterlimit="10" pointer-events="stroke"/><path d="M 300 200 Q 300 200 300 140" fill="none" stroke="#000000" stroke-miterlimit="10" pointer-events="stroke"/><path d="M 300 140 Q 300 120 320 120" fill="none" stroke="#000000" stroke-miterlimit="10" pointer-events="stroke"/><path d="M 350 140 Q 350 120 330 120" fill="none" stroke="#000000" stroke-miterlimit="10" pointer-events="stroke"/><path d="M 340 199 Q 350 199 350 189" fill="none" stroke="#000000" stroke-miterlimit="10" pointer-events="stroke"/><path d="M 330 199 Q 330 199 342 199.17" fill="none" stroke="#000000" stroke-miterlimit="10" pointer-events="stroke"/><path d="M 310 260 Q 310 260 310 220" fill="none" stroke="#000000" stroke-miterlimit="10" pointer-events="stroke"/><path d="M 310 260 Q 310 260 330 260" fill="none" stroke="#000000" stroke-miterlimit="10" pointer-events="stroke"/><path d="M 320 120 Q 320 120 332 120" fill="none" stroke="#000000" stroke-miterlimit="10" pointer-events="stroke"/><path d="M 350 190 Q 350 190 350 140" fill="none" stroke="#000000" stroke-miterlimit="10" pointer-events="stroke"/><ellipse cx="310" cy="85" rx="15" ry="15" fill="none" stroke="#000000" pointer-events="all"/><path d="M 160 199.67 Q 160 199.67 250 200" fill="none" stroke="#000000" stroke-miterlimit="10" pointer-events="stroke"/><path d="M 220 180 Q 250 180 250 200" fill="none" stroke="#000000" stroke-miterlimit="10" pointer-events="stroke"/><path d="M 200 190 Q 210 180 220 180" fill="none" stroke="#000000" stroke-miterlimit="10" pointer-events="stroke"/><path d="M 170 200 Q 190 200 200 190" fill="none" stroke="#000000" stroke-miterlimit="10" pointer-events="stroke"/><path d="M 0 280 Q 0 280 0 0" fill="none" stroke="none" pointer-events="stroke"/><path d="M 10 100 Q 10 100 90 100" fill="none" stroke="#000000" stroke-miterlimit="10" pointer-events="stroke"/><path d="M 10 100 Q 50 60 90 100" fill="none" stroke="#000000" stroke-miterlimit="10" pointer-events="stroke"/><path d="M 370 122 Q 370 122 370 198" fill="none" stroke="#000000" stroke-miterlimit="10" pointer-events="stroke"/><path d="M 370 128 Q 430 108 430 138" fill="none" stroke="#000000" stroke-miterlimit="10" pointer-events="stroke"/><path d="M 430 179 Q 430 179 430 139" fill="none" stroke="#000000" stroke-miterlimit="10" pointer-events="stroke"/><path d="M 430 179 Q 430 209 450 199" fill="none" stroke="#000000" stroke-miterlimit="10" pointer-events="stroke"/><ellipse cx="442" cy="193" rx="10" ry="10" fill="none" stroke="#000000" pointer-events="all"/><path d="M 432 181 Q 470 148 432 90" fill="none" stroke="#000000" stroke-miterlimit="10" pointer-events="stroke"/><path d="M 432 90 Q 410 40 440 10" fill="none" stroke="#000000" stroke-miterlimit="10" pointer-events="stroke"/></g></svg>