<?xml version="1.0" encoding="UTF-8"?>
<!DOCTYPE svg PUBLIC "-//W3C//DTD SVG 1.1//EN" "http://www.w3.org/Graphics/SVG/1.1/DTD/svg11.dtd">
<svg xmlns="http://www.w3.org/2000/svg" xmlns:xlink="http://www.w3.org/1999/xlink" version="1.1" width="304px" height="289px" viewBox="-0.5 -0.5 304 289"><defs/><g><path d="M 132 144 Q 132 124 112 124" fill="none" stroke="#000000" stroke-miterlimit="10" pointer-events="stroke"/><path d="M 132 184 Q 132 184 132 144" fill="none" stroke="#000000" stroke-miterlimit="10" pointer-events="stroke"/><path d="M 132 184 Q 132 204 152 204" fill="none" stroke="#000000" stroke-miterlimit="10" pointer-events="stroke"/><path d="M 152 204 Q 152 204 152 144" fill="none" stroke="#000000" stroke-miterlimit="10" pointer-events="stroke"/><path d="M 152 144 Q 152 124 172 124" fill="none" stroke="#000000" stroke-miterlimit="10" pointer-events="stroke"/><path d="M 202 144 Q 202 124 182 124" fill="none" stroke="#000000" stroke-miterlimit="10" pointer-events="stroke"/><path d="M 192 203 Q 202 203 202 193" fill="none" stroke="#000000" stroke-miterlimit="10" pointer-events="stroke"/><path d="M 182 203 Q 182 203 194 203.17" fill="none" stroke="#000000" stroke-miterlimit="10" pointer-events="stroke"/><path d="M 162 264 Q 162 264 162 224" fill="none" stroke="#000000" stroke-miterlimit="10" pointer-events="stroke"/><path d="M 162 264 Q 162 264 182 264" fill="none" stroke="#000000" stroke-miterlimit="10" pointer-events="stroke"/><path d="M 172 124 Q 172 124 184 124" fill="none" stroke="#000000" stroke-miterlimit="10" pointer-events="stroke"/><path d="M 202 194 Q 202 194 202 144" fill="none" stroke="#000000" stroke-miterlimit="10" pointer-events="stroke"/><ellipse cx="162" cy="89" rx="15" ry="15" fill="none" stroke="#000000" pointer-events="all"/><ellipse cx="82" cy="139" rx="15" ry="15" fill="none" stroke="#000000" pointer-events="all"/><ellipse cx="82" cy="187" rx="15" ry="15" fill="none" stroke="#000000" pointer-events="all"/><path d="M 32 144 Q 32 124 12 124" fill="none" stroke="#000000" stroke-miterlimit="10" pointer-events="stroke"/><path d="M 32 184 Q 32 184 32 144" fill="none" stroke="#000000" stroke-miterlimit="10" pointer-events="stroke"/><path d="M 32 184 Q 32 204 52 204" fill="none" stroke="#000000" stroke-miterlimit="10" pointer-events="stroke"/><path d="M 252 204 Q 252 204 252 154" fill="none" stroke="#000000" stroke-miterlimit="10" pointer-events="stroke"/><path d="M 222 124 Q 252 124 252 154" fill="none" stroke="#000000" stroke-miterlimit="10" pointer-events="stroke"/><path d="M 4 284 Q 4 284 4 4" fill="none" stroke="none" pointer-events="stroke"/><path d="M 72 224 Q 72 224 92 224" fill="none" stroke="#000000" stroke-miterlimit="10" pointer-events="stroke"/><path d="M 82 235 Q 82 235 82 225" fill="none" stroke="#000000" stroke-miterlimit="10" pointer-events="stroke"/><path d="M 302 147 Q 302 127 282 127" fill="none" stroke="rgb(0, 0, 0)" stroke-miterlimit="10" pointer-events="stroke"/><path d="M 292 127 Q 272 127 272 147" fill="none" stroke="rgb(0, 0, 0)" stroke-miterlimit="10" pointer-events="stroke"/><path d="M 272 157 Q 272 157 272 147" fill="none" stroke="rgb(0, 0, 0)" stroke-miterlimit="10" pointer-events="stroke"/><path d="M 302 157 Q 302 157 302 147" fill="none" stroke="rgb(0, 0, 0)" stroke-miterlimit="10" pointer-events="stroke"/><path d="M 302 191 Q 302 171 282 171" fill="none" stroke="rgb(0, 0, 0)" stroke-miterlimit="10" pointer-events="stroke"/><path d="M 292 171 Q 272 171 272 191" fill="none" stroke="rgb(0, 0, 0)" stroke-miterlimit="10" pointer-events="stroke"/><path d="M 272 201 Q 272 201 272 191" fill="none" stroke="rgb(0, 0, 0)" stroke-miterlimit="10" pointer-events="stroke"/><path d="M 302 201 Q 302 201 302 191" fill="none" stroke="rgb(0, 0, 0)" stroke-miterlimit="10" pointer-events="stroke"/></g></svg>